<?xml version="1.0" encoding="UTF-8"?>
<svg version="1.1" xmlns="http://www.w3.org/2000/svg" width="383" height="123">
<path d="M0 0 C126.39 0 252.78 0 383 0 C383 40.59 383 81.18 383 123 C256.61 123 130.22 123 0 123 C0 82.41 0 41.82 0 0 Z " fill="#FEFEFE" transform="translate(0,0)"/>
<path d="M0 0 C8.58 0 17.16 0 26 0 C38.05357143 23.97321429 38.05357143 23.97321429 41.75 31.75 C42.19859375 32.69359375 42.6471875 33.6371875 43.109375 34.609375 C44 37 44 37 44 41 C44.66 41 45.32 41 46 41 C46.84266711 42.74552473 47.67380038 44.4966208 48.5 46.25 C48.9640625 47.22453125 49.428125 48.1990625 49.90625 49.203125 C51.17738102 52.45358861 51.44259273 54.80937092 50.20898438 58.12792969 C49.65694336 59.26343262 49.65694336 59.26343262 49.09375 60.421875 C48.68342529 61.27483154 48.27310059 62.12778809 47.8503418 63.0065918 C47.404729 63.9119165 46.95911621 64.81724121 46.5 65.75 C46.04729736 66.68432861 45.59459473 67.61865723 45.12817383 68.58129883 C43.76203528 71.39252544 42.38385365 74.19745654 41 77 C40.61118652 77.78745605 40.22237305 78.57491211 39.82177734 79.38623047 C37.05942475 84.96408159 34.26684714 90.52618158 31.4296875 96.06640625 C30.75292969 97.39478516 30.75292969 97.39478516 30.0625 98.75 C29.68222656 99.48734375 29.30195312 100.2246875 28.91015625 100.984375 C28.00862958 102.980889 27.50265767 104.87415961 27 107 C22.54178834 107.08674429 18.08379196 107.14030513 13.625 107.1875 C12.35398437 107.21263672 11.08296875 107.23777344 9.7734375 107.26367188 C8.56171875 107.27333984 7.35 107.28300781 6.1015625 107.29296875 C4.98088379 107.3086792 3.86020508 107.32438965 2.70556641 107.34057617 C1.81272949 107.22818604 0.91989258 107.1157959 0 107 C-0.66 106.01 -1.32 105.02 -2 104 C-1.67 103.01 -1.34 102.02 -1 101 C-0.01 101 0.98 101 2 101 C2.24492187 100.18273437 2.48984375 99.36546875 2.7421875 98.5234375 C4.22547612 94.36838676 6.11800949 90.54678711 8.125 86.625 C8.49753906 85.88894531 8.87007812 85.15289062 9.25390625 84.39453125 C10.1656122 82.59449642 11.08229932 80.79698598 12 79 C12.66 79 13.32 79 14 79 C14.11714355 78.2776416 14.23428711 77.5552832 14.35498047 76.81103516 C15.01773677 73.92270203 15.99040572 71.66539654 17.3203125 69.0234375 C17.99900391 67.64671875 17.99900391 67.64671875 18.69140625 66.2421875 C19.65182419 64.32135162 20.61539873 62.402091 21.58203125 60.484375 C22.03191406 59.56914063 22.48179688 58.65390625 22.9453125 57.7109375 C23.36312988 56.87868652 23.78094727 56.04643555 24.21142578 55.18896484 C25.30125704 52.8720279 25.30125704 52.8720279 24 50 C23.505 49.505 23.505 49.505 23 49 C21.93357995 46.96719576 20.8945892 44.91998816 19.8671875 42.8671875 C19.55226349 42.2382962 19.23733948 41.60940491 18.91287231 40.9614563 C18.24105984 39.61851407 17.57026443 38.27506265 16.90039062 36.93115234 C15.90266985 34.93048463 14.9008362 32.93192085 13.8984375 30.93359375 C10.55049717 24.24248431 7.26056895 17.52566245 4.0703125 10.7578125 C3.77526825 10.13736053 3.480224 9.51690857 3.17623901 8.87765503 C1.78194328 5.89365462 0.80481417 3.21925668 0 0 Z " fill="#2F88DA" transform="translate(26,12)"/>
<path d="M0 0 C3.6972284 4.43667408 6.01487652 9.6319147 8.21875 14.9296875 C10.73570628 20.83710404 13.64836214 26.56180236 16.5 32.3125 C16.79181152 32.91070557 17.08362305 33.50891113 17.38427734 34.12524414 C18.2379443 35.87509513 19.10318829 37.61928335 19.96875 39.36328125 C20.47857422 40.39751221 20.98839844 41.43174316 21.51367188 42.49731445 C22.90319859 45.24757473 22.90319859 45.24757473 26 47 C25.505 47.99 25.505 47.99 25 49 C28.3 49.33 31.6 49.66 35 50 C35 50.33 35 50.66 35 51 C31.7 51 28.4 51 25 51 C24.76539063 51.77601562 24.53078125 52.55203125 24.2890625 53.3515625 C22.59108694 58.15734789 20.49046146 62.74081724 18.375 67.375 C17.95476563 68.30183594 17.53453125 69.22867188 17.1015625 70.18359375 C16.07035118 72.45694599 15.03643137 74.72902406 14 77 C13.34 77 12.68 77 12 77 C11.74863281 77.81984375 11.49726562 78.6396875 11.23828125 79.484375 C9.80481877 83.55414229 8.07247382 87.37355667 6.1875 91.25 C5.85685547 91.96929687 5.52621094 92.68859375 5.18554688 93.4296875 C4.84974609 94.11804688 4.51394531 94.80640625 4.16796875 95.515625 C3.87172607 96.13727539 3.5754834 96.75892578 3.27026367 97.39941406 C1.52763997 99.59519361 -0.38318742 100.13430382 -3 101 C-3.43082886 100.03960815 -3.43082886 100.03960815 -3.87036133 99.05981445 C-5.1811981 96.14258856 -6.49679976 93.22753545 -7.8125 90.3125 C-8.49022461 88.80139648 -8.49022461 88.80139648 -9.18164062 87.25976562 C-9.62314453 86.28330078 -10.06464844 85.30683594 -10.51953125 84.30078125 C-11.12438354 82.95753784 -11.12438354 82.95753784 -11.74145508 81.5871582 C-13.02146529 78.95587436 -14.48099699 76.49903892 -16 74 C-16.68182728 72.41079801 -17.32829973 70.80593332 -17.9375 69.1875 C-19.46753358 65.22359062 -21.20968662 61.5055665 -23.265625 57.7890625 C-24 56 -24 56 -24 52 C-24.66 52 -25.32 52 -26 52 C-24.56761474 47.18332626 -22.47626207 42.94326503 -20.0625 38.5625 C-15.67337388 30.46279081 -11.69142619 22.1962734 -7.80688477 13.84399414 C-5.50701066 8.94665501 -3.16674952 4.39211181 0 0 Z " fill="#DAE6E6" transform="translate(26,14)"/>
<path d="M0 0 C8.58 0 17.16 0 26 0 C38.05357143 23.97321429 38.05357143 23.97321429 41.75 31.75 C42.19859375 32.69359375 42.6471875 33.6371875 43.109375 34.609375 C44 37 44 37 44 41 C44.66 41 45.32 41 46 41 C46.84026396 42.76755526 47.67198722 44.53917263 48.5 46.3125 C48.9640625 47.29863281 49.428125 48.28476562 49.90625 49.30078125 C51 52 51 52 51 55 C43.08 54.67 35.16 54.34 27 54 C27 54.66 27 55.32 27 56 C26.34 56 25.68 56 25 56 C25 56.99 25 57.98 25 59 C24.34 59 23.68 59 23 59 C23.5259375 57.3603125 23.5259375 57.3603125 24.0625 55.6875 C25.33039454 52.09079627 25.33039454 52.09079627 24 49 C23.54399414 48.39260986 23.08798828 47.78521973 22.61816406 47.15942383 C20.77676311 44.70209259 19.47795665 42.19799176 18.109375 39.44921875 C17.56764648 38.36463379 17.02591797 37.28004883 16.46777344 36.16259766 C15.9009082 35.01581543 15.33404297 33.8690332 14.75 32.6875 C14.17024414 31.52009277 13.59048828 30.35268555 12.99316406 29.14990234 C1.46717291 5.86869165 1.46717291 5.86869165 0 0 Z " fill="#7BB2DF" transform="translate(26,12)"/>
<path d="M0 0 C1 3 1 3 0.41821289 4.88037109 C-0.17502347 7.88707165 0.84626313 9.25936998 2.30859375 11.9140625 C2.80810547 12.83960937 3.30761719 13.76515625 3.82226562 14.71875 C4.62180664 16.15734375 4.62180664 16.15734375 5.4375 17.625 C6.48126345 19.53199778 7.52180008 21.44076644 8.55859375 23.3515625 C9.02579834 24.19541504 9.49300293 25.03926758 9.97436523 25.90869141 C11 28 11 28 11 30 C11.66 30.33 12.32 30.66 13 31 C12.34 31 11.68 31 11 31 C10.62294922 32.22976562 10.62294922 32.22976562 10.23828125 33.484375 C8.80481877 37.55414229 7.07247382 41.37355667 5.1875 45.25 C4.85685547 45.96929687 4.52621094 46.68859375 4.18554688 47.4296875 C3.84974609 48.11804688 3.51394531 48.80640625 3.16796875 49.515625 C2.72360474 50.44810059 2.72360474 50.44810059 2.27026367 51.39941406 C0.52763997 53.59519361 -1.38318742 54.13430382 -4 55 C-4.28721924 54.35973877 -4.57443848 53.71947754 -4.87036133 53.05981445 C-6.1811981 50.14258856 -7.49679976 47.22753545 -8.8125 44.3125 C-9.49022461 42.80139648 -9.49022461 42.80139648 -10.18164062 41.25976562 C-10.62314453 40.28330078 -11.06464844 39.30683594 -11.51953125 38.30078125 C-11.92276611 37.40528564 -12.32600098 36.50979004 -12.74145508 35.5871582 C-14.02146529 32.95587436 -15.48099699 30.49903892 -17 28 C-17.68182728 26.41079801 -18.32829973 24.80593332 -18.9375 23.1875 C-20.46753358 19.22359062 -22.20968662 15.5055665 -24.265625 11.7890625 C-25 10 -25 10 -25 6 C-25.66 6 -26.32 6 -27 6 C-27 5.34 -27 4.68 -27 4 C-18.42 4 -9.84 4 -1 4 C-0.67 2.68 -0.34 1.36 0 0 Z " fill="#C9DDE5" transform="translate(27,60)"/>
<path d="M0 0 C0.66 0 1.32 0 2 0 C2.29245605 0.57032959 2.58491211 1.14065918 2.88623047 1.72827148 C4.20981754 4.30115464 5.5422736 6.8693399 6.875 9.4375 C7.33519531 10.33533203 7.79539062 11.23316406 8.26953125 12.15820312 C8.71425781 13.01220703 9.15898438 13.86621094 9.6171875 14.74609375 C10.02565918 15.53685303 10.43413086 16.3276123 10.85498047 17.14233398 C11.87024448 19.15460242 11.87024448 19.15460242 14 20 C13.67 20.66 13.34 21.32 13 22 C16.3 22.33 19.6 22.66 23 23 C23 23.33 23 23.66 23 24 C19.7 24 16.4 24 13 24 C12.76539062 24.78632812 12.53078125 25.57265625 12.2890625 26.3828125 C10.62871547 31.04184689 8.52056308 35.42295661 6.375 39.875 C5.95476563 40.75414062 5.53453125 41.63328125 5.1015625 42.5390625 C4.0708308 44.69422878 3.03690574 46.84779922 2 49 C1.34 49 0.68 49 0 49 C-2.07114568 45.28648308 -4.10149991 41.55216147 -6.125 37.8125 C-6.71410156 36.75740234 -7.30320312 35.70230469 -7.91015625 34.61523438 C-8.45800781 33.59365234 -9.00585938 32.57207031 -9.5703125 31.51953125 C-10.34012451 30.11344604 -10.34012451 30.11344604 -11.12548828 28.67895508 C-12 26 -12 26 -11.30078125 23.47265625 C-10.87152344 22.65667969 -10.44226563 21.84070313 -10 21 C-9.62214355 20.17653076 -9.24428711 19.35306152 -8.85498047 18.50463867 C-8.44650879 17.6510376 -8.03803711 16.79743652 -7.6171875 15.91796875 C-7.17246094 14.98662109 -6.72773438 14.05527344 -6.26953125 13.09570312 C-5.80933594 12.13599609 -5.34914063 11.17628906 -4.875 10.1875 C-4.40707031 9.20845703 -3.93914063 8.22941406 -3.45703125 7.22070312 C-2.30609188 4.81312587 -1.15370472 2.40625301 0 0 Z " fill="#FCFDFD" transform="translate(38,41)"/>
<path d="M0 0 C2.3925 -0.0825 4.785 -0.165 7.25 -0.25 C7.99668945 -0.28641602 8.74337891 -0.32283203 9.51269531 -0.36035156 C12.8769398 -0.41645247 14.70218842 -0.21482269 17.453125 1.76953125 C19.34798953 4.50177278 19.5541231 6.7310058 19.40625 10.02734375 C18.78208323 13.05815356 17.14552985 14.85447015 15 17 C15.66 18.11375 16.32 19.2275 17 20.375 C19 23.75 19 23.75 19 26 C16.6953125 26.27734375 16.6953125 26.27734375 14 26 C12.3046875 24.06640625 12.3046875 24.06640625 10.875 21.5625 C8.83304055 17.75519124 8.83304055 17.75519124 5 16 C5 19.3 5 22.6 5 26 C3.35 26 1.7 26 0 26 C0 17.42 0 8.84 0 0 Z " fill="#ECF3FF" transform="translate(226,60)"/>
<path d="M0 0 C2.3925 -0.0825 4.785 -0.165 7.25 -0.25 C7.99668945 -0.28641602 8.74337891 -0.32283203 9.51269531 -0.36035156 C12.87419799 -0.41640674 14.70251494 -0.21411345 17.453125 1.765625 C19.5282779 4.76306808 19.56483718 6.55196958 19.40625 10.09375 C18.7979461 12.94809908 17.28030304 14.28977272 15 16 C15.28875 16.721875 15.5775 17.44375 15.875 18.1875 C16.91666667 20.79166667 17.95833333 23.39583333 19 26 C16.6953125 26.27734375 16.6953125 26.27734375 14 26 C12.3046875 24.06640625 12.3046875 24.06640625 10.875 21.5625 C8.83304055 17.75519124 8.83304055 17.75519124 5 16 C5 19.3 5 22.6 5 26 C3.35 26 1.7 26 0 26 C0 17.42 0 8.84 0 0 Z " fill="#ECF3FF" transform="translate(181,60)"/>
<path d="M0 0 C13.00552486 -0.60773481 13.00552486 -0.60773481 17.375 2.0625 C19.41723737 5.75423679 19.68050965 7.84132993 19 12 C17 14.4375 17 14.4375 15 16 C15.28875 16.721875 15.5775 17.44375 15.875 18.1875 C16.91666667 20.79166667 17.95833333 23.39583333 19 26 C16.6953125 26.27734375 16.6953125 26.27734375 14 26 C12.3046875 24.06640625 12.3046875 24.06640625 10.875 21.5625 C8.83304055 17.75519124 8.83304055 17.75519124 5 16 C5 19.3 5 22.6 5 26 C3.35 26 1.7 26 0 26 C0 17.42 0 8.84 0 0 Z " fill="#ECF3FF" transform="translate(134,21)"/>
<path d="M0 0 C2.3925 -0.0825 4.785 -0.165 7.25 -0.25 C7.99668945 -0.28641602 8.74337891 -0.32283203 9.51269531 -0.36035156 C12.95448456 -0.41774557 14.68035948 -0.24952582 17.421875 1.890625 C20.04983503 5.40324484 20.51786208 7.59817234 20 12 C17.827365 14.57285724 16.02006162 16.48996919 13 18 C10.3276379 18.13415472 7.67749512 18.04318541 5 18 C5 20.64 5 23.28 5 26 C3.35 26 1.7 26 0 26 C0 17.42 0 8.84 0 0 Z " fill="#ECF3FF" transform="translate(203,60)"/>
<path d="M0 0 C2.3925 -0.0825 4.785 -0.165 7.25 -0.25 C7.99668945 -0.28641602 8.74337891 -0.32283203 9.51269531 -0.36035156 C12.95448456 -0.41774557 14.68035948 -0.24952582 17.421875 1.890625 C20.04983503 5.40324484 20.51786208 7.59817234 20 12 C17.827365 14.57285724 16.02006162 16.48996919 13 18 C10.3276379 18.13415472 7.67749512 18.04318541 5 18 C5 20.64 5 23.28 5 26 C3.35 26 1.7 26 0 26 C0 17.42 0 8.84 0 0 Z " fill="#ECF3FF" transform="translate(88,21)"/>
<path d="M0 0 C2.31 0 4.62 0 7 0 C8.98 5.61 10.96 11.22 13 17 C13 11.39 13 5.78 13 0 C14.65 0 16.3 0 18 0 C18 8.58 18 17.16 18 26 C15.69 26 13.38 26 11 26 C9.99422987 23.23113877 8.99519853 20.46015896 8 17.6875 C7.71382813 16.90181641 7.42765625 16.11613281 7.1328125 15.30664062 C6.86210938 14.54931641 6.59140625 13.79199219 6.3125 13.01171875 C5.93544922 11.96697388 5.93544922 11.96697388 5.55078125 10.90112305 C5 9 5 9 5 6 C5 12.66666667 5 19.33333333 5 26 C3.35 26 1.7 26 0 26 C0 17.42 0 8.84 0 0 Z " fill="#ECF3FF" transform="translate(113,60)"/>
<path d="M0 0 C5.94 0 11.88 0 18 0 C18 1.32 18 2.64 18 4 C13.71 4 9.42 4 5 4 C5 5.98 5 7.96 5 10 C8.96 10 12.92 10 17 10 C17 11.65 17 13.3 17 15 C13.04 15 9.08 15 5 15 C5 16.98 5 18.96 5 21 C9.29 21 13.58 21 18 21 C18 22.65 18 24.3 18 26 C12.06 26 6.12 26 0 26 C0 17.42 0 8.84 0 0 Z " fill="#ECF3FF" transform="translate(158,60)"/>
<path d="M0 0 C5.94 0 11.88 0 18 0 C18 1.32 18 2.64 18 4 C13.71 4 9.42 4 5 4 C5 5.98 5 7.96 5 10 C8.96 10 12.92 10 17 10 C17 11.65 17 13.3 17 15 C13.04 15 9.08 15 5 15 C5 16.98 5 18.96 5 21 C9.29 21 13.58 21 18 21 C18 22.65 18 24.3 18 26 C12.06 26 6.12 26 0 26 C0 17.42 0 8.84 0 0 Z " fill="#ECF3FF" transform="translate(90,60)"/>
<path d="M0 0 C2.875 1.1875 2.875 1.1875 5 3 C5.8125 5.6875 5.8125 5.6875 6 8 C4.35 8 2.7 8 1 8 C0.67 7.34 0.34 6.68 0 6 C-1.98 6 -3.96 6 -6 6 C-6.33 7.32 -6.66 8.64 -7 10 C-5.86111328 10.25523438 -5.86111328 10.25523438 -4.69921875 10.515625 C-3.70535156 10.75796875 -2.71148437 11.0003125 -1.6875 11.25 C-0.70136719 11.48203125 0.28476562 11.7140625 1.30078125 11.953125 C4.39770099 13.15424583 5.43456953 14.09966477 7 17 C6.9375 20.5625 6.9375 20.5625 6 24 C3.12439509 26.77290474 1.01755252 27.43140593 -2.9375 27.4375 C-6.49605875 27.32711635 -7.93579633 27.03595405 -11.125 25.25 C-13 23 -13 23 -13 19 C-10.625 18.8125 -10.625 18.8125 -8 19 C-7.34 19.99 -6.68 20.98 -6 22 C-2.535 21.505 -2.535 21.505 1 21 C1 20.01 1 19.02 1 18 C0.24074219 17.76925781 -0.51851563 17.53851563 -1.30078125 17.30078125 C-2.29464844 16.97464844 -3.28851563 16.64851563 -4.3125 16.3125 C-5.29863281 15.99925781 -6.28476562 15.68601562 -7.30078125 15.36328125 C-10.54870321 13.72286915 -11.50924679 12.27660433 -13 9 C-13 5.46669478 -12.27277646 4.29684498 -9.875 1.6875 C-6.2426172 -0.44455077 -4.15582055 -0.51947757 0 0 Z " fill="#ECF3FF" transform="translate(329,59)"/>
<path d="M0 0 C2.98356441 1.81608269 4.61660986 2.93830422 5.8125 6.25 C5.874375 6.8275 5.93625 7.405 6 8 C3.625 8.125 3.625 8.125 1 8 C0.34 7.34 -0.32 6.68 -1 6 C-3.58354218 5.83312552 -3.58354218 5.83312552 -6 6 C-6 7.32 -6 8.64 -6 10 C-5.21753906 10.27714844 -4.43507813 10.55429688 -3.62890625 10.83984375 C-2.61699219 11.20207031 -1.60507812 11.56429687 -0.5625 11.9375 C0.44683594 12.29714844 1.45617187 12.65679687 2.49609375 13.02734375 C5 14 5 14 6 15 C6.57068742 21.96238651 6.57068742 21.96238651 4.625 25.5 C0.52360916 27.84365191 -3.39493789 27.74515568 -8 27 C-11.16025526 25.19413985 -12.57721965 24.17077636 -13.8125 20.75 C-13.9053125 19.88375 -13.9053125 19.88375 -14 19 C-11.6875 18.8125 -11.6875 18.8125 -9 19 C-8.54625 19.495 -8.0925 19.99 -7.625 20.5 C-5.91592237 22.39868105 -5.91592237 22.39868105 -2.3125 22.1875 C-1.219375 22.125625 -0.12625 22.06375 1 22 C1 20.35 1 18.7 1 17 C0.32453125 16.90203125 -0.3509375 16.8040625 -1.046875 16.703125 C-8.25868726 15.49420849 -8.25868726 15.49420849 -11.625 13.25 C-13.51901283 10.15070628 -13.72835728 8.56895065 -13 5 C-8.97692262 0.48630342 -6.21726293 -1.0173703 0 0 Z " fill="#ECF3FF" transform="translate(284,59)"/>
<path d="M0 0 C5.94 0 11.88 0 18 0 C18 1.32 18 2.64 18 4 C13.71 4 9.42 4 5 4 C5 5.98 5 7.96 5 10 C8.96 10 12.92 10 17 10 C17 11.65 17 13.3 17 15 C13.04 15 9.08 15 5 15 C5 16.98 5 18.96 5 21 C9.29 21.33 13.58 21.66 18 22 C18 23.32 18 24.64 18 26 C12.06 26 6.12 26 0 26 C0 17.42 0 8.84 0 0 Z " fill="#ECF3FF" transform="translate(294,60)"/>
<path d="M0 0 C5.94 0 11.88 0 18 0 C18 1.32 18 2.64 18 4 C13.71 4 9.42 4 5 4 C5 5.98 5 7.96 5 10 C8.96 10 12.92 10 17 10 C17 11.65 17 13.3 17 15 C13.04 15 9.08 15 5 15 C5 16.98 5 18.96 5 21 C9.29 21.33 13.58 21.66 18 22 C18 23.32 18 24.64 18 26 C12.06 26 6.12 26 0 26 C0 17.42 0 8.84 0 0 Z " fill="#ECF3FF" transform="translate(179,21)"/>
<path d="M0 0 C5.94 0 11.88 0 18 0 C18 1.32 18 2.64 18 4 C13.71 4 9.42 4 5 4 C5 5.98 5 7.96 5 10 C8.96 10 12.92 10 17 10 C17 11.65 17 13.3 17 15 C13.04 15 9.08 15 5 15 C5 16.98 5 18.96 5 21 C9.29 21.33 13.58 21.66 18 22 C18 23.32 18 24.64 18 26 C12.06 26 6.12 26 0 26 C0 17.42 0 8.84 0 0 Z " fill="#ECF3FF" transform="translate(111,21)"/>
<path d="M0 0 C2.50577554 1.43839507 3.95183181 2.85429999 6 5 C6 6.32 6 7.64 6 9 C3.525 8.505 3.525 8.505 1 8 C1 7.34 1 6.68 1 6 C-1.31 6 -3.62 6 -6 6 C-8.33991708 9.65612044 -8.37437949 12.73207376 -8 17 C-6.63002843 19.87146994 -6.63002843 19.87146994 -5 22 C-2.52733235 21.65555119 -2.52733235 21.65555119 0 21 C0.33 20.34 0.66 19.68 1 19 C2.98 19 4.96 19 7 19 C4.375 24.75 4.375 24.75 1 27 C-3.55515656 27.4408216 -5.88263631 27.63155339 -9.875 25.375 C-13.18985347 21.67016377 -13.86854006 18.44605937 -14.3125 13.5625 C-13.94874842 9.415732 -13.0270636 6.63473473 -11 3 C-7.44821585 0.02418085 -4.57495069 -0.74693073 0 0 Z " fill="#ECF3FF" transform="translate(214,20)"/>
<path d="M0 0 C6.93 0 13.86 0 21 0 C21 2.64 21 5.28 21 8 C19.35 8 17.7 8 16 8 C16 6.68 16 5.36 16 4 C15.01 4 14.02 4 13 4 C13 11.26 13 18.52 13 26 C11.35 26 9.7 26 8 26 C8 18.74 8 11.48 8 4 C7.01 4 6.02 4 5 4 C5 5.32 5 6.64 5 8 C3.35 8 1.7 8 0 8 C0 5.36 0 2.72 0 0 Z " fill="#ECF3FF" transform="translate(223,21)"/>
<path d="M0 0 C6.6 0 13.2 0 20 0 C20 2.64 20 5.28 20 8 C18.35 8 16.7 8 15 8 C15 6.68 15 5.36 15 4 C14.01 4 13.02 4 12 4 C12 11.26 12 18.52 12 26 C10.35 26 8.7 26 7 26 C7 18.74 7 11.48 7 4 C6.01 4 5.02 4 4 4 C4 5.32 4 6.64 4 8 C2.68 8 1.36 8 0 8 C0 5.36 0 2.72 0 0 Z " fill="#ECF3FF" transform="translate(135,60)"/>
<path d="M0 0 C5.61 0 11.22 0 17 0 C17 1.32 17 2.64 17 4 C13.04 4 9.08 4 5 4 C5 6.31 5 8.62 5 11 C8.63 11 12.26 11 16 11 C16 12.32 16 13.64 16 15 C12.37 15 8.74 15 5 15 C5 18.63 5 22.26 5 26 C3.35 26 1.7 26 0 26 C0 17.42 0 8.84 0 0 Z " fill="#ECF3FF" transform="translate(157,21)"/>
<path d="M0 0 C5.28 0 10.56 0 16 0 C16 1.32 16 2.64 16 4 C14.02 4 12.04 4 10 4 C10 9.61 10 15.22 10 21 C11.98 21.33 13.96 21.66 16 22 C16 23.32 16 24.64 16 26 C10.72 26 5.44 26 0 26 C0 24.68 0 23.36 0 22 C1.65 22 3.3 22 5 22 C5 16.06 5 10.12 5 4 C3.35 4 1.7 4 0 4 C0 2.68 0 1.36 0 0 Z " fill="#ECF3FF" transform="translate(250,60)"/>
<path d="M0 0 C6.39075249 -0.36174071 6.39075249 -0.36174071 9 1.1875 C10 3 10 3 9.75 5.625 C9 8 9 8 8 9 C5.32941149 9.14115161 2.67567762 9.04247107 0 9 C0 6.03 0 3.06 0 0 Z " fill="#FDFDFF" transform="translate(208,64)"/>
<path d="M0 0 C6.39075249 -0.36174071 6.39075249 -0.36174071 9 1.1875 C10 3 10 3 9.75 5.625 C9 8 9 8 8 9 C5.32941149 9.14115161 2.67567762 9.04247107 0 9 C0 6.03 0 3.06 0 0 Z " fill="#FDFDFF" transform="translate(93,25)"/>
<path d="M0 0 C6.75 -0.125 6.75 -0.125 9 1 C9.04254356 2.99954746 9.04080783 5.00041636 9 7 C8 8 8 8 6.15234375 8.09765625 C4.1015625 8.06510417 2.05078125 8.03255208 0 8 C0 5.36 0 2.72 0 0 Z " fill="#FEFEFF" transform="translate(231,64)"/>
<path d="M0 0 C3.375 -0.125 3.375 -0.125 7 0 C9 2 9 2 9.125 4.625 C9.08375 5.40875 9.0425 6.1925 9 7 C6.04335481 8.4783226 3.25770263 8.06032783 0 8 C0 5.36 0 2.72 0 0 Z " fill="#FEFEFF" transform="translate(186,64)"/>
<path d="M0 0 C3.375 -0.125 3.375 -0.125 7 0 C7.66 0.66 8.32 1.32 9 2 C8.44444444 6.55555556 8.44444444 6.55555556 7 8 C4.66702567 8.04092937 2.33294775 8.04241723 0 8 C0 5.36 0 2.72 0 0 Z " fill="#FEFEFF" transform="translate(139,25)"/>
<path d="M0 0 C0.66 0 1.32 0 2 0 C3.38938077 1.96147874 4.7260411 3.96166576 6 6 C6.33 4.02 6.66 2.04 7 0 C7.66 0 8.32 0 9 0 C9 3.3 9 6.6 9 10 C8.01 10.495 8.01 10.495 7 11 C5.68 9.02 4.36 7.04 3 5 C2.67 6.65 2.34 8.3 2 10 C1.34 10 0.68 10 0 10 C0 6.7 0 3.4 0 0 Z " fill="#EFF5FF" transform="translate(136,103)"/>
<path d="M0 0 C0.66 0 1.32 0 2 0 C2.53229326 1.26607607 3.05044544 2.53810412 3.5625 3.8125 C3.85253906 4.52019531 4.14257812 5.22789063 4.44140625 5.95703125 C5 8 5 8 4 11 C3.67 10.01 3.34 9.02 3 8 C1.35 8 -0.3 8 -2 8 C-2.33 8.99 -2.66 9.98 -3 11 C-3.33 10.34 -3.66 9.68 -4 9 C-3.22265625 6.8359375 -3.22265625 6.8359375 -2.0625 4.375 C-1.68222656 3.55773437 -1.30195313 2.74046875 -0.91015625 1.8984375 C-0.60980469 1.27195312 -0.30945313 0.64546875 0 0 Z " fill="#F0F6FF" transform="translate(196,103)"/>
<path d="M0 0 C1.65 1.65 3.3 3.3 5 5 C5.33 3.35 5.66 1.7 6 0 C6.66 0 7.32 0 8 0 C8 3.3 8 6.6 8 10 C4 8 4 8 2 5 C1.67 6.65 1.34 8.3 1 10 C0.67 10 0.34 10 0 10 C0 6.7 0 3.4 0 0 Z " fill="#EEF4FF" transform="translate(205,103)"/>
<path d="M0 0 C2.4375 0.375 2.4375 0.375 5 1 C5.33 1.66 5.66 2.32 6 3 C3.03 2.505 3.03 2.505 0 2 C0 2.66 0 3.32 0 4 C1.98 4.66 3.96 5.32 6 6 C5.67 7.32 5.34 8.64 5 10 C3.35 10.33 1.7 10.66 0 11 C-0.66 10.01 -1.32 9.02 -2 8 C0.97 8.495 0.97 8.495 4 9 C2.74458443 6.48916886 1.49936512 6.12874554 -1 5 C-0.67 3.35 -0.34 1.7 0 0 Z " fill="#EFF5FF" transform="translate(150,103)"/>
<path d="M0 0 C1.67542976 0.28604898 3.34385343 0.61781233 5 1 C5 2.65 5 4.3 5 6 C3.34385343 6.38218767 1.67542976 6.71395102 0 7 C-1 6 -1 6 -1.125 3.5 C-1 1 -1 1 0 0 Z " fill="#FEFEFF" transform="translate(126,105)"/>
<path d="M0 0 C2.64 0 5.28 0 8 0 C8 0.66 8 1.32 8 2 C7.01 2 6.02 2 5 2 C5 4.64 5 7.28 5 10 C4.34 10 3.68 10 3 10 C3 7.36 3 4.72 3 2 C2.01 2 1.02 2 0 2 C0 1.34 0 0.68 0 0 Z " fill="#F0F6FF" transform="translate(181,103)"/>
<path d="M0 0 C2.64 0 5.28 0 8 0 C8 0.66 8 1.32 8 2 C7.01 2 6.02 2 5 2 C5 4.64 5 7.28 5 10 C4.34 9.67 3.68 9.34 3 9 C3 6.36 3 3.72 3 1 C2.01 0.67 1.02 0.34 0 0 Z " fill="#EFF5FF" transform="translate(94,103)"/>
<path d="M0 0 C2.31 0 4.62 0 7 0 C6.67 0.66 6.34 1.32 6 2 C5.34 2 4.68 2 4 2 C4 4.64 4 7.28 4 10 C3.34 9.67 2.68 9.34 2 9 C1.61936779 6.6739143 1.28730055 4.33944736 1 2 C0.67 1.34 0.34 0.68 0 0 Z " fill="#F0F6FF" transform="translate(217,103)"/>
</svg>
